<svg preserveAspectRatio="none" width="100%" height="100%" overflow="visible" style="display: block;" viewBox="0 0 22 22" fill="none" xmlns="http://www.w3.org/2000/svg">
<g id="mdi:hide-outline">
<path id="Vector" d="M1.83333 4.83083L3.00667 3.66667L18.3333 18.9933L17.1692 20.1667L14.3458 17.3433C13.2917 17.6917 12.1733 17.875 11 17.875C6.41667 17.875 2.5025 15.0242 0.916667 11C1.54917 9.38667 2.5575 7.96583 3.84083 6.83833L1.83333 4.83083ZM11 8.25C11.7293 8.25 12.4288 8.53973 12.9445 9.05546C13.4603 9.57118 13.75 10.2707 13.75 11C13.7505 11.3122 13.6978 11.6222 13.5942 11.9167L10.0833 8.40583C10.3778 8.30223 10.6878 8.24954 11 8.25ZM11 4.125C15.5833 4.125 19.4975 6.97583 21.0833 11C20.3348 12.9002 19.0635 14.5496 17.4167 15.7575L16.115 14.4467C17.3827 13.5698 18.4051 12.3833 19.085 11C18.344 9.48738 17.1935 8.213 15.7643 7.32174C14.335 6.43049 12.6844 5.95812 11 5.95833C10.0008 5.95833 9.02 6.12333 8.10333 6.41667L6.69167 5.01417C8.01167 4.44583 9.46917 4.125 11 4.125ZM2.915 11C3.65598 12.5126 4.8065 13.787 6.23575 14.6783C7.665 15.5695 9.31563 16.0419 11 16.0417C11.6325 16.0417 12.2558 15.9775 12.8333 15.8492L10.7433 13.75C10.1055 13.6816 9.51026 13.397 9.05664 12.9434C8.60303 12.4897 8.31837 11.8945 8.25 11.2567L5.13333 8.13083C4.22583 8.91 3.465 9.88167 2.915 11Z" fill="var(--fill-0, #D9D9D9)"/>
</g>
</svg>
